<?xml version="1.0" encoding="utf-8"?>
<!-- Generator: Adobe Illustrator 24.3.0, SVG Export Plug-In . SVG Version: 6.00 Build 0)  -->
<svg version="1.1" id="Layer_1" xmlns="http://www.w3.org/2000/svg" xmlns:xlink="http://www.w3.org/1999/xlink" x="0px" y="0px"
	 viewBox="0 0 502.7 435.2" style="enable-background:new 0 0 502.7 435.2;" xml:space="preserve">
<style type="text/css">
	.st0{fill:#B2B2AB;}
</style>
<g>
	<path class="st0" d="M351.2,402.8H151.4c-53.6-0.1-97.1-43.6-97.2-97.2V107.2c0-41.3,33.5-74.7,74.8-74.8h56.9
		c42.4,0,56.7,13.4,71,31c7.2,8.9,12.9,15.9,28,21.2c14.4,5,36.1,4.9,66.2,4.8c29.8-0.1,53.7,8.5,70.9,25.6s26.4,42,26.4,71.6v119
		C448.3,359.2,404.8,402.7,351.2,402.8z M129,64.4c-23.6,0-42.7,19.2-42.8,42.8v198.4c0,36,29.2,65.2,65.2,65.2h199.8
		c36,0,65.2-29.2,65.2-65.2V186.5c0-14.6-3-34.9-17-48.9c-10.9-10.9-27.1-16.4-48.1-16.3c-33.3,0.1-57.4,0.3-77-6.6
		c-23.6-8.3-34-21-42.3-31.2c-9.4-11.5-15.6-19.2-46.2-19.2L129,64.4z"/>
	<path class="st0" d="M321.9,306.2H169.6c-8.8,0-16-7.2-16-16s7.2-16,16-16h152.3c8.8,0,16,7.2,16,16S330.7,306.2,321.9,306.2z"/>
	<path class="st0" d="M258.6,234.4h-89c-8.8,0-16-7.2-16-16c0-8.8,7.2-16,16-16h89c8.8,0,16,7.2,16,16
		C274.6,227.3,267.4,234.4,258.6,234.4z"/>
</g>
</svg>
