<svg xmlns="http://www.w3.org/2000/svg" xmlns:xlink="http://www.w3.org/1999/xlink" version="1.1" x="0px" y="0px" viewBox="0 0 500 625" style="enable-background:new 0 0 500 500;" xml:space="preserve"><g><path d="M349.9,435.2H150.1C96.5,435.1,53,391.6,52.9,338V139.6c0-41.3,33.5-74.7,74.8-74.8h56.9c42.4,0,56.7,13.4,71,31   c7.2,8.9,12.9,15.9,28,21.2c14.4,5,36.1,4.9,66.2,4.8c29.8-0.1,53.7,8.5,70.9,25.6s26.4,42,26.4,71.6v119   C447,391.6,403.5,435.1,349.9,435.2z M127.7,96.8c-23.6,0-42.7,19.2-42.8,42.8V338c0,36,29.2,65.2,65.2,65.2h199.8   c36,0,65.2-29.2,65.2-65.2V218.9c0-14.6-3-34.9-17-48.9c-10.9-10.9-27.1-16.4-48.1-16.3c-33.3,0.1-57.4,0.3-77-6.6   c-23.6-8.3-34-21-42.3-31.2c-9.4-11.5-15.6-19.2-46.2-19.2L127.7,96.8z"/><path d="M320.6,338.6H168.3c-8.8,0-16-7.2-16-16s7.2-16,16-16h152.3c8.8,0,16,7.2,16,16S329.4,338.6,320.6,338.6z"/><path d="M257.3,266.8h-89c-8.8,0-16-7.2-16-16c0-8.8,7.2-16,16-16h89c8.8,0,16,7.2,16,16C273.3,259.7,266.1,266.8,257.3,266.8z"/></g><text x="0" y="515" fill="#000000" font-size="5px" font-weight="bold" font-family="'Helvetica Neue', Helvetica, Arial-Unicode, Arial, Sans-serif">Created by Syed Raheel</text><text x="0" y="520" fill="#000000" font-size="5px" font-weight="bold" font-family="'Helvetica Neue', Helvetica, Arial-Unicode, Arial, Sans-serif">from the Noun Project</text></svg>